#tb 0: 1/15
#tb 1: 1/44100
0,          0,          0,        1,   161280, 0x677c9fb3
1,          0,          0,     2708,    10832, 0xe1a811fa
1,       2708,       2708,     2708,    10832, 0xb47841f9
0,          1,          1,        1,   161280, 0xaa280e0a
1,       5416,       5416,     2708,    10832, 0x839eedf1
0,          2,          2,        1,   161280, 0x8a4d2225
1,       8124,       8124,     2708,    10832, 0xb48b1f60
0,          3,          3,        1,   161280, 0xf10f46a8
1,      10832,      10832,     2708,    10832, 0x743936c0
0,          4,          4,        1,   161280, 0x98d9eab6
1,      13540,      13540,     2708,    10832, 0xe1f039fb
0,          5,          5,        1,   161280, 0xa543ae1e
1,      16248,      16248,     2708,    10832, 0xef00751a
0,          6,          6,        1,   161280, 0x79d717ae
1,      18956,      18956,     2708,    10832, 0x401ed099
0,          7,          7,        1,   161280, 0x1a87e2cb
1,      21664,      21664,     2708,    10832, 0x432a53bd
0,          8,          8,        1,   161280, 0xe5c000ac
1,      24372,      24372,     2708,    10832, 0xc4276bfd
0,          9,          9,        1,   161280, 0xa5827077
1,      27080,      27080,     2708,    10832, 0x51f0fa8c
0,         10,         10,        1,   161280, 0xfd0615ee
1,      29788,      29788,     2708,    10832, 0xcebae622
0,         11,         11,        1,   161280, 0xc6fdc861
1,      32496,      32496,     2708,    10832, 0xe9f6dc1f
1,      35204,      35204,     2708,    10832, 0xda087fee
0,         12,         12,        1,   161280, 0xaa007c7e
1,      37912,      37912,     2708,    10832, 0x67a621bb
0,         13,         13,        1,   161280, 0xf15e3a96
1,      40620,      40620,     2708,    10832, 0xd7be207f
0,         14,         14,        1,   161280, 0xce827ae1
1,      43328,      43328,     2708,    10832, 0x19d32507
0,         15,         15,        1,   161280, 0xf379fc13
1,      46036,      46036,     2708,    10832, 0xe1a3fbfa
0,         16,         16,        1,   161280, 0x89686a0c
1,      48744,      48744,     2708,    10832, 0xd10df779
0,         17,         17,        1,   161280, 0x7e8342bd
1,      51452,      51452,     2708,    10832, 0x4428e1a7
0,         18,         18,        1,   161280, 0x640dab86
1,      54160,      54160,     2708,    10832, 0x7ea9b33d
0,         19,         19,        1,   161280, 0xc6a86456
1,      56868,      56868,     2708,    10832, 0x6852a5a5
0,         20,         20,        1,   161280, 0xe360b538
1,      59576,      59576,     2708,    10832, 0xfeb78863
0,         21,         21,        1,   161280, 0xbcc21064
1,      62284,      62284,     2708,    10832, 0xf157f928
0,         22,         22,        1,   161280, 0x95bc4e63
1,      64992,      64992,     2708,    10832, 0x86414b3e
0,         23,         23,        1,   161280, 0x390fa1bd
1,      67700,      67700,     2708,    10832, 0x2e28cdf6
1,      70408,      70408,     2708,    10832, 0x00212e44
0,         24,         24,        1,   161280, 0xa35b3bb9
1,      73116,      73116,     2708,    10832, 0x2d7f9378
0,         25,         25,        1,   161280, 0x730b0779
1,      75824,      75824,     2708,    10832, 0x84cb25d7
0,         26,         26,        1,   161280, 0xf3c3a3eb
1,      78532,      78532,     2708,    10832, 0x3aca41fa
0,         27,         27,        1,   161280, 0x676ecbaa
1,      81240,      81240,     2708,    10832, 0x27ad34b9
0,         28,         28,        1,   161280, 0x06c4a4e5
1,      83948,      83948,     2708,    10832, 0xe665144a
0,         29,         29,        1,   161280, 0x177d26d9
1,      86656,      86656,     2708,    10832, 0xf9546626
0,         30,         30,        1,   161280, 0xdaf69ebe
1,      89364,      89364,     2708,    10832, 0xe71c4f22
0,         31,         31,        1,   161280, 0xabadc296
1,      92072,      92072,     2708,    10832, 0x5e61869c
0,         32,         32,        1,   161280, 0xec144665
1,      94780,      94780,     2708,    10832, 0x571d2c10
0,         33,         33,        1,   161280, 0x6785aa48
1,      97488,      97488,     2708,    10832, 0xf0e08cd5
0,         34,         34,        1,   161280, 0x2a0cfcaf
1,     100196,     100196,     2708,    10832, 0x66650e49
0,         35,         35,        1,   161280, 0x9288d513
1,     102904,     102904,     2708,    10832, 0x4024deaf
1,     105612,     105612,     2708,    10832, 0xda7bdb14
0,         36,         36,        1,   161280, 0x1d295ad0
1,     108320,     108320,     2708,    10832, 0xc27a342f
0,         37,         37,        1,   161280, 0xb9fd8406
1,     111028,     111028,     2708,    10832, 0x574fe679
0,         38,         38,        1,   161280, 0x98bced49
1,     113736,     113736,     2708,    10832, 0x37db464e
0,         39,         39,        1,   161280, 0x42e6fbae
1,     116444,     116444,     2708,    10832, 0xb1fa2a83
0,         40,         40,        1,   161280, 0xfd218209
1,     119152,     119152,     2708,    10832, 0x3d98d9b7
0,         41,         41,        1,   161280, 0x21c2ef31
1,     121860,     121860,     2708,    10832, 0xb7c908e2
0,         42,         42,        1,   161280, 0xce4be932
1,     124568,     124568,     2708,    10832, 0x9f7e44d8
0,         43,         43,        1,   161280, 0xd5c0d5fc
1,     127276,     127276,     2708,    10832, 0xae9b8774
0,         44,         44,        1,   161280, 0xf8d13076
1,     129984,     129984,     2708,    10832, 0x36916e3f
0,         45,         45,        1,   161280, 0xdbf86007
1,     132692,     132692,     2708,    10832, 0xd785f5ef
0,         46,         46,        1,   161280, 0x9475a651
1,     135400,     135400,     2708,    10832, 0x2a3a5673
1,     138108,     138108,     2708,    10832, 0x7320e379
0,         47,         47,        1,   161280, 0x41bf1542
1,     140816,     140816,     2708,    10832, 0xec787be5
0,         48,         48,        1,   161280, 0x6945297f
1,     143524,     143524,     2708,    10832, 0xd0d13aa0
0,         49,         49,        1,   161280, 0x2282025e
1,     146232,     146232,     2708,    10832, 0x34dfcb17
0,         50,         50,        1,   161280, 0x55aace0c
1,     148940,     148940,     2708,    10832, 0x1a9c29f1
0,         51,         51,        1,   161280, 0xc78aa51c
1,     151648,     151648,     2708,    10832, 0x3e73dcc1
0,         52,         52,        1,   161280, 0xb4b84e6c
1,     154356,     154356,     2708,    10832, 0x7855b053
0,         53,         53,        1,   161280, 0x3bbb3e44
1,     157064,     157064,     2708,    10832, 0x5588df8f
0,         54,         54,        1,   161280, 0x4dd89d80
1,     159772,     159772,     2708,    10832, 0x6f621299
0,         55,         55,        1,   161280, 0xa446a5c5
1,     162480,     162480,     2708,    10832, 0xce7f39c2
0,         56,         56,        1,   161280, 0x8f56b1d6
1,     165188,     165188,     2708,    10832, 0xd88e6552
0,         57,         57,        1,   161280, 0xa170df87
1,     167896,     167896,     2708,    10832, 0xddc63597
0,         58,         58,        1,   161280, 0x4740a4df
1,     170604,     170604,     2708,    10832, 0xe3071865
1,     173312,     173312,     2708,    10832, 0x2a44a123
0,         59,         59,        1,   161280, 0x86608ee7
1,     176020,     176020,     2708,    10832, 0x08d85d45
0,         60,         60,        1,   161280, 0x629b4543
1,     178728,     178728,     2708,    10832, 0x4dc5f83a
0,         61,         61,        1,   161280, 0x697fb952
1,     181436,     181436,     2708,    10832, 0x89497812
0,         62,         62,        1,   161280, 0x98e84a51
1,     184144,     184144,     2708,    10832, 0x9ee1db54
0,         63,         63,        1,   161280, 0x97949a90
1,     186852,     186852,     2708,    10832, 0x5277d611
0,         64,         64,        1,   161280, 0x6a8c9b96
1,     189560,     189560,     2708,    10832, 0x570a619c
0,         65,         65,        1,   161280, 0xafa714ab
1,     192268,     192268,     2708,    10832, 0xa217d70f
0,         66,         66,        1,   161280, 0x0cf39314
1,     194976,     194976,     2708,    10832, 0x6f0ecbf4
0,         67,         67,        1,   161280, 0x9ccc8171
1,     197684,     197684,     2708,    10832, 0x2704b114
0,         68,         68,        1,   161280, 0x8232d5a8
1,     200392,     200392,     2708,    10832, 0xf24e679f
0,         69,         69,        1,   161280, 0x250dd5cb
1,     203100,     203100,     2708,    10832, 0x05572099
0,         70,         70,        1,   161280, 0xf764e43a
1,     205808,     205808,     2708,    10832, 0x33942d0c
1,     208516,     208516,     2708,    10832, 0xa77ea674
0,         71,         71,        1,   161280, 0x2f4bec00
1,     211224,     211224,     2708,    10832, 0xeba663bc
0,         72,         72,        1,   161280, 0x76f1598b
1,     213932,     213932,     2708,    10832, 0x1338524a
0,         73,         73,        1,   161280, 0xa91b84da
1,     216640,     216640,     2708,    10832, 0x6182b0b3
0,         74,         74,        1,   161280, 0x011a77fb
1,     219348,     219348,     2708,    10832, 0xa410a364
0,         75,         75,        1,   161280, 0xdbf5341c
1,     222056,     222056,     2708,    10832, 0x2f4374b0
0,         76,         76,        1,   161280, 0x40d5abfa
1,     224764,     224764,     2708,    10832, 0xf41f3a07
0,         77,         77,        1,   161280, 0x9fb8360c
1,     227472,     227472,     2708,    10832, 0x2b1c50c6
0,         78,         78,        1,   161280, 0xabc5fba8
1,     230180,     230180,     2708,    10832, 0x3692ac89
0,         79,         79,        1,   161280, 0x98090909
1,     232888,     232888,     2708,    10832, 0x5d6bc87e
0,         80,         80,        1,   161280, 0x9a3613bd
1,     235596,     235596,     2708,    10832, 0x1b1cda0c
0,         81,         81,        1,   161280, 0x9071024f
1,     238304,     238304,     2708,    10832, 0x11eaa15f
1,     241012,     241012,     2708,    10832, 0x73c7d7ef
0,         82,         82,        1,   161280, 0x4df39487
1,     243720,     243720,     2708,    10832, 0x65d7e3be
0,         83,         83,        1,   161280, 0x17658524
1,     246428,     246428,     2708,    10832, 0xb9c00688
0,         84,         84,        1,   161280, 0xbcd794df
1,     249136,     249136,     2708,    10832, 0x0b98c125
0,         85,         85,        1,   161280, 0x2a14ae05
1,     251844,     251844,     2708,    10832, 0x331ed413
0,         86,         86,        1,   161280, 0x664feab2
1,     254552,     254552,     2708,    10832, 0x9b68f485
0,         87,         87,        1,   161280, 0xf6b721f4
1,     257260,     257260,     2708,    10832, 0x1b865c55
0,         88,         88,        1,   161280, 0xfec565f3
1,     259968,     259968,     2708,    10832, 0x68cef565
0,         89,         89,        1,   161280, 0xd39aabee
1,     262676,     262676,     2708,    10832, 0x3a605f15
0,         90,         90,        1,   161280, 0x1f3d5de7
1,     265384,     265384,     2708,    10832, 0xd72ff22e
0,         91,         91,        1,   161280, 0xaf97f50c
1,     268092,     268092,     2708,    10832, 0x1c672b67
0,         92,         92,        1,   161280, 0xe34b6b6a
1,     270800,     270800,     2708,    10832, 0xfd1a7e7e
0,         93,         93,        1,   161280, 0x4117371e
1,     273508,     273508,     2708,    10832, 0x9bf20ead
1,     276216,     276216,     2708,    10832, 0x00000000
0,         94,         94,        1,   161280, 0x4117371e
1,     278924,     278924,     2708,    10832, 0x00000000
0,         95,         95,        1,   161280, 0xe555b55e
1,     281632,     281632,     2708,    10832, 0x00000000
0,         96,         96,        1,   161280, 0xe555b55e
1,     284340,     284340,     2708,    10832, 0x00000000
0,         97,         97,        1,   161280, 0xe555b55e
1,     287048,     287048,     2708,    10832, 0x00000000
0,         98,         98,        1,   161280, 0xe555b55e
1,     289756,     289756,     2708,    10832, 0x00000000
0,         99,         99,        1,   161280, 0xe555b55e
1,     292464,     292464,     2708,    10832, 0x00000000
0,        100,        100,        1,   161280, 0xe555b55e
1,     295172,     295172,     2708,    10832, 0x00000000
0,        101,        101,        1,   161280, 0xe555b55e
1,     297880,     297880,     2708,    10832, 0x00000000
0,        102,        102,        1,   161280, 0xe555b55e
1,     300588,     300588,     2708,    10832, 0x00000000
0,        103,        103,        1,   161280, 0xe555b55e
1,     303296,     303296,     2708,    10832, 0x00000000
0,        104,        104,        1,   161280, 0xe555b55e
